<svg xmlns="http://www.w3.org/2000/svg" data-name="Layer 1" id="Layer_1" viewBox="0 0 64 64" width="300" height="300" version="1.1" xmlns:xlink="http://www.w3.org/1999/xlink" xmlns:svgjs="http://svgjs.dev/svgjs"><g transform="matrix(1,0,0,1,0,0)"><title/><path d="M49,2a6,6,0,1,0,6,6A6,6,0,0,0,49,2Zm0,10a4,4,0,1,1,4-4A4,4,0,0,1,49,12Z" fill="#7456ffff" data-original-color="#000000ff" stroke="none"/><path d="M43,38H55a1,1,0,0,0,1-1v-.38a3,3,0,0,0,1.31.38,3.31,3.31,0,0,0,2.42-1A4.2,4.2,0,0,0,61,33V22.35C61,18.3,58,15,54.36,15H42.82a.82.82,0,0,1-.82-.82V5.5a3.5,3.5,0,1,0-7,0V16.3A5.71,5.71,0,0,0,40.7,22a1.29,1.29,0,0,1,.91.37,1.31,1.31,0,0,1,.39.93V37A1,1,0,0,0,43,38Zm7-10.62a2,2,0,0,1-.06.85L49,30.92l-.92-2.67a2.09,2.09,0,0,1-.06-.87l.91-6.7h.14Zm-.34-8.85a1.32,1.32,0,0,1-1.29,0A1.85,1.85,0,0,1,47.47,17h3.06A1.85,1.85,0,0,1,49.64,18.53ZM40.7,20A3.7,3.7,0,0,1,37,16.3V5.5a1.5,1.5,0,0,1,3,0v8.68A2.83,2.83,0,0,0,42.82,17h2.65A3.85,3.85,0,0,0,47,20L46,27.1a4.05,4.05,0,0,0,.14,1.77l1.87,5.45a1,1,0,0,0,1.9,0l1.87-5.47A3.91,3.91,0,0,0,52,27.11L51,20a3.85,3.85,0,0,0,1.53-3h1.83C56.92,17,59,19.4,59,22.35V33a2.23,2.23,0,0,1-.65,1.6,1.29,1.29,0,0,1-1,.4A1.74,1.74,0,0,1,56,33.55V26a1,1,0,0,0-2,0V36H44V23.3A3.28,3.28,0,0,0,40.7,20Z" fill="#7456ffff" data-original-color="#000000ff" stroke="none"/><path d="M15,38a6,6,0,1,0-6-6A6,6,0,0,0,15,38Zm0-10a4,4,0,1,1-4,4A4,4,0,0,1,15,28Z" fill="#7456ffff" data-original-color="#000000ff" stroke="none"/><path d="M29,40.3V29.5a3.5,3.5,0,0,0-7,0v8.68a.82.82,0,0,1-.82.82H9.64C6,39,3,42.3,3,46.35V57a4.2,4.2,0,0,0,1.27,3A3.32,3.32,0,0,0,6.7,61,3.09,3.09,0,0,0,8,60.63V61a1,1,0,0,0,1,1H21a1,1,0,0,0,1-1V47.3a1.29,1.29,0,0,1,.37-.91A1.31,1.31,0,0,1,23.3,46,5.71,5.71,0,0,0,29,40.3ZM16,51.38a2,2,0,0,1-.06.85L15,54.92l-.92-2.67a2.09,2.09,0,0,1-.06-.87l.91-6.7h.14Zm-.34-8.85a1.32,1.32,0,0,1-1.29,0A1.85,1.85,0,0,1,13.47,41h3.06A1.85,1.85,0,0,1,15.64,42.53ZM21,45A3.34,3.34,0,0,0,20,47.3V60H10V50a1,1,0,0,0-2,0v7.55A1.74,1.74,0,0,1,6.61,59a1.3,1.3,0,0,1-1-.4A2.23,2.23,0,0,1,5,57V46.35C5,43.4,7.08,41,9.64,41h1.83A3.85,3.85,0,0,0,13,44L12,51.1a4.05,4.05,0,0,0,.14,1.77l1.87,5.45a1,1,0,0,0,1.9,0l1.87-5.47A3.91,3.91,0,0,0,18,51.11L17,44a3.85,3.85,0,0,0,1.53-3h2.65A2.83,2.83,0,0,0,24,38.18V29.5a1.5,1.5,0,0,1,3,0V40.3A3.7,3.7,0,0,1,23.3,44,3.36,3.36,0,0,0,21,45Z" fill="#7456ffff" data-original-color="#000000ff" stroke="none"/><path d="M39,55v6a1,1,0,0,0,1,1H56.75A4.26,4.26,0,0,0,61,57.75V41a1,1,0,0,0-1-1H53a1,1,0,0,0-1,1v1a2,2,0,0,1-2,2,2,2,0,0,1-2-2V41a1,1,0,0,0-1-1H40a1,1,0,0,0-1,1v6a4,4,0,0,0,0,8Zm-1.41-5.41A2,2,0,0,1,39,49h1a1,1,0,0,0,1-1V42h5a4,4,0,0,0,8,0h5V57.75A2.25,2.25,0,0,1,56.75,60H41V54a1,1,0,0,0-1-1H39a2,2,0,0,1-2-2A2,2,0,0,1,37.59,49.59Z" fill="#7456ffff" data-original-color="#000000ff" stroke="none"/><path d="M24,2H7.25A4.26,4.26,0,0,0,3,6.25V23a1,1,0,0,0,1,1h7a1,1,0,0,0,1-1V22a2,2,0,0,1,2-2,2,2,0,0,1,2,2v1a1,1,0,0,0,1,1h7a1,1,0,0,0,1-1V17a4,4,0,0,0,0-8V3A1,1,0,0,0,24,2Zm3,11a2,2,0,0,1-2,2H24a1,1,0,0,0-1,1v6H18a4,4,0,0,0-8,0H5V6.25A2.25,2.25,0,0,1,7.25,4H23v6a1,1,0,0,0,1,1h1A2,2,0,0,1,27,13Z" fill="#7456ffff" data-original-color="#000000ff" stroke="none"/></g></svg>