<svg height="300" viewBox="0 0 512 512" width="300" xmlns="http://www.w3.org/2000/svg" version="1.1" xmlns:xlink="http://www.w3.org/1999/xlink" xmlns:svgjs="http://svgjs.dev/svgjs"><g transform="matrix(1,0,0,1,0,0)"><g id="OUTLINE"><path d="m272 144h24v16h-24z" fill="#7456ffff" data-original-color="#000000ff" stroke="none"/><path d="m244.42188 199.15527 16 8 7.15624-14.31054-7.89453-3.94727 10.97266-16.46-13.3125-8.875-16 24a7.99882 7.99882 0 0 0 3.07813 11.59277z" fill="#7456ffff" data-original-color="#000000ff" stroke="none"/><path d="m285.65723 221.65723-11.31446-11.31446-.74218.74219a43.80414 43.80414 0 0 1 -31.17871 12.91504h-2.42188v16h2.42188a59.70391 59.70391 0 0 0 42.49312-17.60059z" fill="#7456ffff" data-original-color="#000000ff" stroke="none"/><path d="m144 400h16v96h-16z" fill="#7456ffff" data-original-color="#000000ff" stroke="none"/><path d="m216 144h24v16h-24z" fill="#7456ffff" data-original-color="#000000ff" stroke="none"/><path d="m56 104h16v24h-16z" fill="#7456ffff" data-original-color="#000000ff" stroke="none"/><path d="m92.686 119.999h22.627v16.001h-22.627z" transform="matrix(.707 -.707 .707 .707 -60.049 111.029)" fill="#7456ffff" data-original-color="#000000ff" stroke="none"/><path d="m15.999 116.686h16.001v22.627h-16.001z" transform="matrix(.707 -.707 .707 .707 -83.48 54.461)" fill="#7456ffff" data-original-color="#000000ff" stroke="none"/><path d="m88 264v-30.45752a48 48 0 1 0 -48 0v30.45752a8.00039 8.00039 0 0 0 8 8h32a8.00039 8.00039 0 0 0 8-8zm-16-8h-16v-16.67944a47.43733 47.43733 0 0 0 16 0zm-24-72v16h8v22.9873a32 32 0 1 1 16 0v-22.9873h8v-16z" fill="#7456ffff" data-original-color="#000000ff" stroke="none"/><path d="m132 199.351h16.001v25.298h-16.001z" transform="matrix(.316 -.949 .949 .316 -105.393 277.775)" fill="#7456ffff" data-original-color="#000000ff" stroke="none"/><path d="m115.999 227.029h16.001v33.941h-16.001z" transform="matrix(.707 -.707 .707 .707 -136.215 159.147)" fill="#7456ffff" data-original-color="#000000ff" stroke="none"/><path d="m491.57812 232.84473-23.89453-11.94727 18.44825-27.67383a23.36661 23.36661 0 0 0 -37.02735-28.34863l-41.49414 47.42188-6.63965-6.64063a24.00066 24.00066 0 0 0 -33.9414 0l-4.68653 4.68652a8.00169 8.00169 0 0 0 -1.28906 9.626l30.94629 54.15523v13.876a8.00039 8.00039 0 0 0 -8 8v11.52563c-1.62646-.46069-3.26147-.88989-4.91016-1.2561l-75.08984-16.68701v-31.91452a87.475 87.475 0 0 0 39.2959-65.668h4.7041a28 28 0 0 0 0-56h-8.76025l-2.40015-24h15.1604a48.17227 48.17227 0 0 0 35.09473-15.25293 47.61323 47.61323 0 0 0 12.78906-36.13477 48.10439 48.10439 0 0 0 -44.49609-44.49609h-.001a47.82975 47.82975 0 0 0 -44.9326 23.83008 31.65277 31.65277 0 0 1 -27.09082 16.05371h-1.582a31.73979 31.73979 0 0 1 -24.90332-12.15137 72.00336 72.00336 0 0 0 -128.79496 40.65528 71.65422 71.65422 0 0 0 21.865 55.293 27.99017 27.99017 0 0 0 14.052 52.20309h4.7041a87.475 87.475 0 0 0 39.2959 65.668v31.91455l-75.08984 16.687a87.999 87.999 0 0 0 -68.91016 85.90428v103.82617h16v-103.82617a71.99835 71.99835 0 0 1 56.38086-70.28516l30.53393-6.7854 82.97779 98.0647a8.0015 8.0015 0 0 0 12.21484 0l82.978-98.06494 30.53467 6.78564a72.52554 72.52554 0 0 1 8.37991 2.42139v123.68994a48 48 0 0 0 96 0v-152a8.00039 8.00039 0 0 0 -8-8v-3.71875l20.4375-13.625a7.99943 7.99943 0 0 0 3.5625-6.65625v-24a8.00022 8.00022 0 0 0 -4.42188-7.15527zm-143.57812-80.84473a12 12 0 0 1 0 24h-4.76465c-.01172-.11987-.01929-.2395-.03125-.35938l-2.36426-23.64062zm-179.2041 23.64062c-.012.11988-.01953.23951-.03125.35938h-4.76465a12 12 0 0 1 0-24h7.16016zm3.89062-39.64062h-1.55175a56.00636 56.00636 0 1 1 73.11035-82.333 47.21575 47.21575 0 0 0 37.53613 18.333h1.582a47.69335 47.69335 0 0 0 40.93075-24.02637 31.89643 31.89643 0 0 1 29.99311-15.89453h-.001a31.99976 31.99976 0 0 1 21.11231 53.75 31.69141 31.69141 0 0 1 -23.39842 10.1709h-89.6084a119.21787 119.21787 0 0 0 -84.85254 35.14648zm30.19727 96.43164a71.76646 71.76646 0 0 1 -18.168-55.19922l3.4043-34.03808.7334-.7334a103.314 103.314 0 0 1 73.53811-30.46094h58.3689l6.52368 65.23242a71.6393 71.6393 0 0 1 -124.40039 55.19922zm21.11621 57.99902v-24.50341a87.34744 87.34744 0 0 0 64 0v24.50341a99.15346 99.15346 0 0 1 -64 0zm40 29.56934a8 8 0 1 1 -8-8 8.00917 8.00917 0 0 1 8 8zm-34.64282 44.12793-44.79956-52.94531 30.81714-6.84839a116.32845 116.32845 0 0 0 18.96215 5.344 23.95056 23.95056 0 0 0 3.23975 25.68213zm26.64282 31.4873-14.20264-16.78491 10.05616-35.19632a23.86123 23.86123 0 0 0 8.88891-.10669l11.11548 33.34644zm27.958-33.0415-9.20679-27.61987a23.94081 23.94081 0 0 0 2.91187-25.27564 116.32141 116.32141 0 0 0 18.96215-5.344l30.81714 6.84814zm180.042 85.42627a32 32 0 0 1 -64 0v-144h64zm16-188.28125-20.4375 13.625a7.99943 7.99943 0 0 0 -3.5625 6.65625v8h-48v-16a7.99833 7.99833 0 0 0 -1.05371-3.96875l-28.96875-50.69531.36621-.36524a8.00771 8.00771 0 0 1 11.3125 0l12.68652 12.68653a8.00118 8.00118 0 0 0 11.67774-.38965l47.125-53.85742a7.36718 7.36718 0 0 1 11.67383 8.93847l-23.47559 35.21387a7.99882 7.99882 0 0 0 3.07813 11.59277l27.57812 13.78907z" fill="#7456ffff" data-original-color="#000000ff" stroke="none"/><path d="m382.34277 165.65723 16 16a8.00181 8.00181 0 0 0 11.31446 0l44-44-11.31446-11.31446-38.34277 38.34375-10.34277-10.34375z" fill="#7456ffff" data-original-color="#000000ff" stroke="none"/></g></g></svg>