<svg xmlns="http://www.w3.org/2000/svg" version="1.1" xmlns:xlink="http://www.w3.org/1999/xlink" width="512" height="512" x="0" y="0" viewBox="0 0 32 32" style="enable-background:new 0 0 512 512" xml:space="preserve" class=""><g><path fill="#00adff" d="M18.54 8c5.72 0 10.358 3.794 10.358 8.475a7.937 7.937 0 0 1-3.662 6.46s-.105 1.073 1.778 3.898c-2.825.942-4.884-2.417-4.884-2.417a12.372 12.372 0 0 1-3.59.534c-5.722 0-10.36-3.794-10.36-8.475S12.819 8 18.54 8z" opacity="1" data-original="#2196f3" class=""></path><path fill="#009688" d="M13.5 4.74C7.701 4.74 3 8.587 3 13.331a8.045 8.045 0 0 0 3.712 6.548s.106 1.089-1.803 3.952c2.864.955 4.951-2.45 4.951-2.45a12.541 12.541 0 0 0 3.64.541c5.799 0 10.5-3.846 10.5-8.59S19.299 4.74 13.5 4.74z" opacity="1" data-original="#ff9800" class=""></path><path fill="#212121" d="M8 11a1 1 0 0 1 1-1h9a1 1 0 0 1 0 2H9a1 1 0 0 1-1-1zm11 4a1 1 0 0 0-1-1H9a1 1 0 0 0 0 2h9a1 1 0 0 0 1-1zm8.846 11.279a1.007 1.007 0 0 1-.516 1.503c-2.172.92-4.797-.995-5.605-2.219a12.782 12.782 0 0 1-11.623-2.808c-.964 1.23-3.44 2.902-5.51 2.025a1.007 1.007 0 0 1-.515-1.504 11.732 11.732 0 0 0 1.547-2.958A8.9 8.9 0 0 1 2 13.33c0-5.289 5.159-9.59 11.5-9.59a12.32 12.32 0 0 1 9.29 3.96c4.16 1.407 7.107 4.804 7.107 8.774a8.793 8.793 0 0 1-3.577 6.902 11.945 11.945 0 0 0 1.526 2.902zM10.15 20.424a11.532 11.532 0 0 0 3.35.498c5.238 0 9.5-3.405 9.5-7.591s-4.262-7.59-9.5-7.59S4 9.145 4 13.33a7.063 7.063 0 0 0 3.282 5.727.999.999 0 0 1 .425.724 5.931 5.931 0 0 1-1.04 3.09 5.271 5.271 0 0 0 2.34-2.014.998.998 0 0 1 1.143-.434zm17.747-3.949a6.964 6.964 0 0 0-3.32-5.685A8.074 8.074 0 0 1 25 13.331c.167 5.3-5.406 9.398-11.137 9.603a11.08 11.08 0 0 0 4.676 1.016 11.368 11.368 0 0 0 3.3-.491 1.001 1.001 0 0 1 1.143.435 5.31 5.31 0 0 0 2.266 1.963 5.81 5.81 0 0 1-1.007-3.02 1 1 0 0 1 .424-.724 6.955 6.955 0 0 0 3.232-5.638z" opacity="1" data-original="#212121" class=""></path></g></svg>