<svg id="_x33_0" enable-background="new 0 0 64 64" height="300" viewBox="0 0 64 64" width="300" xmlns="http://www.w3.org/2000/svg" version="1.1" xmlns:xlink="http://www.w3.org/1999/xlink" xmlns:svgjs="http://svgjs.dev/svgjs"><g transform="matrix(1,0,0,1,0,0)"><g><path d="m29 22c0 .552-.449 1-1 1s-1-.448-1-1v-1h-2v1c0 1.654 1.346 3 3 3s3-1.346 3-3v-1h-2z" fill="#7456ffff" data-original-color="#000000ff" stroke="none"/><path d="m63 22c0-11.579-9.42-21-21-21-6.497 0-12.471 2.913-16.482 8h-6.518c-2.206 0-4 1.794-4 4 0 1.463.803 2.789 2.049 3.488.235 1.421 1.464 2.512 2.951 2.512h1v2.172c0 1.557-.606 3.021-1.707 4.121l-.708.707 2.415 2.414v4.077c0 2.487 2.022 4.509 4.509 4.509.417 0 .833-.058 1.239-.173l2.252-.644v3.898c-2.448 2.198-4 5.377-4 8.919v2h-6c-1.103 0-2 .897-2 2h-2c-2.206 0-4 1.794-4 4h-4v-17c0-1.654-1.346-3-3-3s-3 1.346-3 3v20c0 1.654 1.346 3 3 3h41v-20.236c10.32-1.471 18-10.228 18-20.764zm-44-6c0-.552.449-1 1-1h1v-2h-1c-1.029 0-1.938.522-2.479 1.314-.318-.358-.521-.813-.521-1.314 0-1.103.897-2 2-2h13.257c5.924 0 10.743 4.819 10.743 10.742 0 4.096-2.275 7.777-5.938 9.608l-.062.031v-4.381c2.206 0 4-1.794 4-4s-1.794-4-4-4h-.171c-.413-1.164-1.525-2-2.829-2h-3.184c.112-.314.184-.648.184-1 0-1.654-1.346-3-3-3h-1v2h1c.551 0 1 .448 1 1s-.449 1-1 1h-8c-.551 0-1-.448-1-1zm12 19.612 2.275-.65-.55-1.924-6.525 1.865c-.227.065-.459.097-.691.097-1.209 0-2.221-.86-2.457-2h1.948c2.206 0 4-1.794 4-4h-2c0 1.103-.897 2-2 2h-2v-3.414l-1.63-1.63c1.058-1.364 1.63-3.03 1.63-4.784v-2.172h11c.551 0 1 .448 1 1v1h2c1.103 0 2 .897 2 2s-.897 2-2 2h-2v12.181c-1.436.242-2.784.737-4 1.443zm-4 13.388c0-4.176 2.576-7.759 6.221-9.253-.132.396-.221.813-.221 1.253v3c0 2.35-1.823 7-3 7h-3zm-12 6h2v2h-4c0-1.103.897-2 2-2zm-11-16c.551 0 1 .448 1 1v17h-1c-.352 0-.686.072-1 .184v-17.184c0-.552.449-1 1-1zm0 22c-.551 0-1-.448-1-1s.449-1 1-1h16c.551 0 1 .448 1 1s-.449 1-1 1zm18.816-2h2.184v2h-2.184c.112-.314.184-.648.184-1s-.072-.686-.184-1zm16.184 2h-12v-2h3c3.808 0 7.043-3.349 9-7.3zm0-17c0 5.015-4.119 13-9 13h-11v-4h11c3.227 0 5-6.76 5-9v-3c0-1.103.897-2 2-2s2 .897 2 2zm4 17h-2v-26h2zm-2-28c-1.103 0-2 .897-2 2v2.556c-.591-.344-1.268-.556-2-.556v-3.382l.956-.478c3.097-1.548 5.351-4.214 6.394-7.376l2.943 2.943 1.414-1.414-3.824-3.825c.076-.566.117-1.142.117-1.726 0-.427-.023-.848-.064-1.264l1.771-1.771-1.414-1.414-.825.825c-1.383-4.65-5.353-8.184-10.235-8.949 2.044-1.238 4.363-1.963 6.767-2.124v3.955h2v-3.949c3.383.225 6.457 1.569 8.861 3.674l-2.79 2.79 1.414 1.414 2.79-2.79c2.105 2.404 3.45 5.478 3.674 8.861h-3.949v2h3.953c-.224 3.365-1.557 6.456-3.668 8.872l-2.8-2.8-1.414 1.414 2.793 2.793c-1.912 1.677-4.255 2.881-6.864 3.411v-1.69c0-1.103-.897-2-2-2zm4 7.745v-2.028c8.038-1.433 14-8.458 14-16.717 0-9.374-7.626-17-17-17-4.012 0-7.874 1.425-10.934 4h-2.922c3.583-3.835 8.526-6 13.856-6 10.477 0 19 8.523 19 19 0 9.435-6.808 17.295-16 18.745z" fill="#7456ffff" data-original-color="#000000ff" stroke="none"/></g></g></svg>