<svg xmlns="http://www.w3.org/2000/svg" version="1.1" xmlns:xlink="http://www.w3.org/1999/xlink" width="512" height="512" x="0" y="0" viewBox="0 0 512 512" style="enable-background:new 0 0 512 512" xml:space="preserve" class=""><g><linearGradient id="a" x1="6" x2="506" y1="256" y2="256" gradientUnits="userSpaceOnUse"><stop stop-opacity="1" stop-color="#2bc4f3" offset="0"></stop><stop stop-opacity="1" stop-color="#00aeee" offset="0"></stop><stop stop-opacity="1" stop-color="#7456ff" offset="0"></stop></linearGradient><linearGradient id="b" x1="111.259" x2="414.094" y1="148.612" y2="451.446" gradientUnits="userSpaceOnUse"><stop offset="0"></stop><stop offset="1" stop-opacity="0"></stop></linearGradient><circle cx="256" cy="256" r="250" fill="url(#a)" opacity="1" data-original="url(#a)" class=""></circle><path fill="url(#b)49" d="M497.655 320.232 338.925 161.5c-23.942-23.171-57.821-36.754-97.559-36.754H135.123v262.5l118.721 118.727c.72.006 1.435.027 2.156.027 115.863 0 213.3-78.824 241.655-185.768z" opacity="1" data-original="url(#b)49" class=""></path><path fill="#ffffff" d="M376.877 255.786c0 76.6-56.251 131.465-135.511 131.465H135.123v-262.5h106.243c79.477-.003 135.511 54.328 135.511 131.035zm-74.138 0c0-38.944-25.91-64.808-64.782-64.808h-30.195v130.047h30.195c38.872 0 64.782-26.512 64.782-65.239z" opacity="1" data-original="#ffffff" class=""></path></g></svg>